<svg xmlns="http://www.w3.org/2000/svg" viewBox="0 0 279 300"><defs><style>.b251675f-6ece-45d0-8fd6-3fe02a41fc46{isolation:isolate;}.b1440a04-dfec-4809-ab84-c9264d02acb5{fill:#f1d859;}.fc4bea26-8f83-4b96-9705-1fa32429f249{fill:#6bb9df;}.b3bc164f-5673-4001-b3f9-3d57ebc5f6d5{fill:#db7970;}.f0084798-bd9c-46f5-87ab-292ce2355f59{fill:#f7e8a0;mix-blend-mode:overlay;}.bb79255a-111e-426e-bfc3-49c017d0cc42{fill:#7e6b67;}</style></defs><title>HeroLoading</title><g class="b251675f-6ece-45d0-8fd6-3fe02a41fc46"><g id="facfcc7b-1e70-48ed-bcfa-cafe48a6a239" data-name="Camada 1"><path class="b1440a04-dfec-4809-ab84-c9264d02acb5" d="M261.15,164.5c0,.79-.09,1.56-.17,2.34a83.15,83.15,0,0,1-1.93,11.94l-2.75,11.66-3.56,15.06c-.47,2-1,3.93-1.55,5.86-.43,1.5-.89,3-1.39,4.46a.48.48,0,0,0-.07.24c-.35,1-.7,2-1.07,3-.17.49-.36,1-.54,1.46l-.65-.38c-15-8.71-31.38-18.19-53.23-26.66l16.22-56.26A231.74,231.74,0,0,1,245,153.79,184,184,0,0,1,261.15,164.5Z"/><path class="fc4bea26-8f83-4b96-9705-1fa32429f249" d="M210.46,137.23l-16.22,56.26a300.82,300.82,0,0,0-30.77-10c-24.78-6.65-55.57-11.82-95.51-14.15l22.2-56.59c11.18.79,23.08,2,35.38,3.65A432.41,432.41,0,0,1,175.25,126,312.3,312.3,0,0,1,210.46,137.23Z"/><path class="b3bc164f-5673-4001-b3f9-3d57ebc5f6d5" d="M90.16,112.75,68,169.34q-17.89-1.05-38.33-1.29Q23,168,16,168l-6.19,0H9.7c.07-.78.16-1.57.25-2.36.07-.63.14-1.25.23-1.89a115.56,115.56,0,0,1,2.17-11.91l2.05-8.68,4.26-18c.3-1.24.62-2.47,1-3.7a1.52,1.52,0,0,1,.06-.2A80.63,80.63,0,0,1,23,111.79c2.54-.12,5.42-.22,8.59-.31,9.65-.28,22.1-.37,36.41.11C75,111.83,82.4,112.19,90.16,112.75Z"/><path class="f0084798-bd9c-46f5-87ab-292ce2355f59" d="M245,153.79C84.57,99,28.69,139.94,9.82,168H9.7c.13-1.42.3-2.83.48-4.25a115.56,115.56,0,0,1,2.17-11.91l6.31-26.72c.3-1.24.62-2.47,1-3.7A81.52,81.52,0,0,1,23,111.79a586.81,586.81,0,0,1,102.53,4.61C174.13,123,214.21,135.59,245,153.79Z"/><path class="bb79255a-111e-426e-bfc3-49c017d0cc42" d="M262.1,168.11a39.8,39.8,0,0,0,15.55-23.62c4.44-18.74-2.25-40.63-17-55.78A61.21,61.21,0,0,0,230.22,71.6C218,69,205.91,70.7,197,76.35a30.69,30.69,0,0,1-5.58-1.95l-1.61-.83-11.06-5.72-.84-.45c-.49-.27-1-.54-1.54-.79-.37-3.19-.57-6.64-.66-11.11-.21-10,.28-20,1.11-31.52.16.42.32.83.5,1.23.82,1.86,1.75,3.73,2.77,5.56,3.95,7.13,8.83,12.52,14.5,16a30.2,30.2,0,0,0,7.67,3.38,10,10,0,0,0,1.44,3.39l.11.18a14.75,14.75,0,0,0,2.21,2.88,15.7,15.7,0,0,0,17,3.33,14.77,14.77,0,0,0,9.11-14,15,15,0,0,0-10.93-13.71,15.47,15.47,0,0,0-17.4,6.85,14.74,14.74,0,0,0-1.54,3.61c-.06.25-.12.49-.17.71q-.89-.68-1.65-1.35c-5.62-4.94-10.44-11.59-15.16-20.94-1.93-3.83-3.7-7.83-5.27-11.9-.71-1.86-1.33-3.57-1.89-5.23l-.43-1.27c-.22-1.47-.68-2.34-1.37-2.58a1.66,1.66,0,0,0-1.68.56c-1.52,1.41-2.39,4.18-3,6.09a277.12,277.12,0,0,1-12.34,32.89,127.77,127.77,0,0,1-7.56,14.23,69.64,69.64,0,0,1-4.31,6.23C145.25,60,143,60,140.72,60h-3.4l-8.63-.09-2.92,0A41.93,41.93,0,0,1,119,59a5.18,5.18,0,0,0-.84-1.19,3.7,3.7,0,0,1-.26-.32c-.41-.57-.84-1.12-1.28-1.67a39.71,39.71,0,0,0-2.84-3.13,42.12,42.12,0,0,0-6.7-5.4,49.75,49.75,0,0,0-16.75-6.89C67.46,35.45,42,45,27,64.23c-9.44,12.06-16.83,32.41-6.68,50.16l-.14.36c-.13.33-.26.67-.38,1a4.08,4.08,0,0,0-.52.07l-.27,0-1.4.11-2.69.22c-3.45.29-5.72,2-6.4,4.86q-1.61,6.72-3.17,13.44c-.64,2.72-1.28,5.43-1.93,8.15-.34,1.44-.68,2.88-1,4.32-.68,2.87-1.37,5.74-2,8.62-1.07,4.72,3.7,6.9,7.19,8.5l.88.4c-.34,2.55-.58,4.92-.72,7.24a118,118,0,0,0,6.16,45.53,121.8,121.8,0,0,0,22.51,39.29,124.07,124.07,0,0,0,63.75,39.59A136.77,136.77,0,0,0,133.25,300a127.49,127.49,0,0,0,26.46-2.67c1.55-.34,2.91-.66,4.15-1a127.91,127.91,0,0,0,43-20.14A121.4,121.4,0,0,0,238,243.66a119.79,119.79,0,0,0,12.7-26.25l1.53.1,1,.06c4,.28,6.64-1.28,7.48-4.39.13-.47.23-1,.34-1.44l7.72-32.67c.05-.18.1-.38.15-.57a7.74,7.74,0,0,0,.36-2.43,5.17,5.17,0,0,0-2.41-4l-1.36-1c-1.1-.8-2.23-1.62-3.41-2.33l0-.14C262.06,168.43,262.09,168.27,262.1,168.11Zm-8,37.52,4.07-17.16c1.33-5.64,2.71-11.45,3.56-17.27l2.39,1.65c1.72,1.15,3.2,2.15,2.78,4.24-.28,1.37-.63,2.77-1,4.12-.17.69-.35,1.38-.51,2.07L258.87,211l-.12.51a5.44,5.44,0,0,1-1.28,2.93c-1.38,1.33-3.48,1.12-5.51.91l-.58-.06C252.41,212.06,253.32,208.83,254.07,205.63ZM16.82,125.53q-2,8.58-4.06,17.17c-1.69,7.16-3.07,13.18-4,19.46l-3.15-1.55c-2.54-1.25-3.49-2.81-3-4.9l8.05-34.11c.78-3.32,4.67-3.46,8.1-3.59H19C18.09,120.68,17.38,123.15,16.82,125.53Zm97.79,48c-16.27-2.26-33.26-3.82-52-4.78-16.6-.84-33-1-52.4-1,.16-1.65.34-3.27.56-4.82.83-6,2.27-12,3.67-17.83.28-1.15.56-2.3.83-3.46.46-1.93.89-3.87,1.33-5.82,1.07-4.73,2.18-9.63,3.55-14.35a85.58,85.58,0,0,1,3.15-8.87c1.1-.08,2.22-.11,3.31-.14l1.47,0c15.19-.52,30.79-.43,46.4.27,17.43.77,34.58,2.31,51,4.56a429,429,0,0,1,48.92,9.45,296.91,296.91,0,0,1,47.19,16.13,222.08,222.08,0,0,1,21.25,10.8c3.7,2.14,7.3,4.39,10.7,6.68,1.67,1.12,3.37,2.3,5,3.51.09.06.22.18.39.31a13.31,13.31,0,0,0,1.17.89,84.62,84.62,0,0,1-2,13.88q-1.29,5.49-2.59,11L254,196.09a205.9,205.9,0,0,1-6.63,23.85l-1.53-.89c-12.95-7.5-27-15.34-42-21.82a301.34,301.34,0,0,0-47.5-15.8A408.09,408.09,0,0,0,114.61,173.56ZM251.9,118.87a88,88,0,0,0-30-31.72,91.81,91.81,0,0,0-20.65-9.6l-1.22-.37a39.46,39.46,0,0,1,3.85-1.76,40.4,40.4,0,0,1,7.29-2.08,45.9,45.9,0,0,1,15.7-.13c20.26,3.21,37.79,18,45.75,38.56,6.55,16.91,6,40.63-10.29,53.4.14-1.81.2-3.39.2-4.89A83,83,0,0,0,251.9,118.87ZM71.31,63.68A90.23,90.23,0,0,0,35.2,89.07a85.07,85.07,0,0,0-13.83,22.58c-.43-.88-.83-1.77-1.17-2.65a36,36,0,0,1-1.93-6.8A39.82,39.82,0,0,1,18.34,88c3.41-18.81,18.72-35.7,39-43a61.21,61.21,0,0,1,20.54-3.5c14.52,0,29.33,5.08,38,17l-1.23-.17A91.42,91.42,0,0,0,71.31,63.68ZM175.69,5.32c0,.24,0,.47,0,.69,0,2-.13,3.94-.23,5.78-.25,4.39-.57,8.85-.87,13.16l-.08,1c-1,14.15-1.72,26.9-.45,39.61.5,4.94,1.26,10.13,3.46,14.59a12.25,12.25,0,0,0,3.39,4.43c.29.23,3.27,2.11,4.59,1.55a1,1,0,0,0,.65-.9c.12-1-1.14-1.28-1.89-1.43a3.73,3.73,0,0,1-.54-.12,6,6,0,0,1-1.71-1c-3-2.51-4-6.86-4.78-10.73-.16-.83-.31-1.7-.46-2.65l10,5.2A42.09,42.09,0,0,0,194.85,78a98.88,98.88,0,0,1,21.25,8.28A86,86,0,0,1,233.66,99a84.68,84.68,0,0,1,23.11,37,81.29,81.29,0,0,1,3.49,26.33c-.93-.68-1.86-1.36-2.81-2A217.63,217.63,0,0,0,215,137.6a324.83,324.83,0,0,0-47.24-14.83,452.68,452.68,0,0,0-49.66-8.7c-16.39-2-33.41-3.29-50.57-3.85-5.8-.19-11.77-.28-18-.28-8,0-16.33.15-25.22.47A83.89,83.89,0,0,1,43.45,83.67a88.48,88.48,0,0,1,70.12-23.26c1.61.18,3.24.47,4.82.76a55.79,55.79,0,0,0,6.09.87c4.19.3,8.5.27,12.67.24,2,0,3.94,0,5.9,0l2.66,0a37.61,37.61,0,0,1-4.21,4.18c-4,3.39-7.8,4.86-11.23,4.39a7.82,7.82,0,0,1-.77-.25c-1.23-.44-2.5-.89-3-.18a1,1,0,0,0-.15,1c.24.63,1.1,1.1,2.72,1.47,5.22,1.23,10.27-1.77,13.59-4.5a54.4,54.4,0,0,0,10.58-12.62,147,147,0,0,0,12-24.17c2.12-5.25,4.14-10.72,6.16-16.73.36-1.07.69-2.16,1-3.25.55-1.82,1.12-3.71,1.83-5.47l.18-.46a18.2,18.2,0,0,1,1.19-2.58v0l0,.27A17.92,17.92,0,0,1,175.69,5.32Zm37.62,44.89a1.16,1.16,0,0,0,.31-1.09c-.17-.83-1.41-1.12-3-1.42a8.19,8.19,0,0,1-.81-.17A23.39,23.39,0,0,1,206.15,46c-.6-.32-1.21-.68-1.91-1.13a5,5,0,0,0,.1-.75,4.63,4.63,0,0,1,.07-.5,12.81,12.81,0,0,1,.59-1.84,12.58,12.58,0,0,1,1.88-3.14,13.39,13.39,0,0,1,15.31-3.74,12.44,12.44,0,0,1-.48,23.25A13.44,13.44,0,0,1,207,54.34a12,12,0,0,1-2.09-3.58C206.45,51,212,51.58,213.31,50.21Zm-36.09-31.3.1-1.35c.21-2.6.41-5.27.52-7.93.34.9.71,1.83,1.1,2.8A103,103,0,0,0,191.1,35c5.11,7,10.4,11.54,16.08,13.91-6.37-.4-13.22-4.1-18.81-10.26A50.15,50.15,0,0,1,181,27.7c-.95-1.86-1.85-3.87-2.82-6.31l-.07-.18C177.89,20.71,177.37,19.41,177.22,18.91Zm-145,228.7A118.69,118.69,0,0,1,13.44,208,115.14,115.14,0,0,1,10.06,170l.25,0h.2c20.4-.11,38.43.29,55.11,1.22,18.89,1.05,35.92,2.71,52.08,5.07a397.79,397.79,0,0,1,41.46,8.19,297.17,297.17,0,0,1,48.89,17.08A392,392,0,0,1,246.61,222a115.25,115.25,0,0,1-20.3,33.46A121.79,121.79,0,0,1,193.73,282a125.61,125.61,0,0,1-129.2-3.81A120.29,120.29,0,0,1,32.21,247.61Z"/></g></g></svg>