<svg xmlns="http://www.w3.org/2000/svg" viewBox="0 0 300 390"><defs><style>.cls-1{isolation:isolate;}.cls-2{fill:#c5bbb8;}.cls-3{fill:#a3928e;}.cls-4{fill:#f1d859;}.cls-5{fill:#6bb9df;}.cls-6{fill:#db7970;}.cls-7{fill:#f7e8a0;mix-blend-mode:overlay;}.cls-8{fill:#7e6b67;}</style></defs><title>Hero</title><g class="cls-1"><g id="Camada_2" data-name="Camada 2"><path class="cls-2" d="M247.8,52.51a.8.8,0,0,1,0,.15,14,14,0,0,1-6.44,8.79,14.68,14.68,0,0,1-11,1.79,14.39,14.39,0,0,1-7.11-3.85l-.24-.25c-.15-.14-.28-.3-.41-.44a5.17,5.17,0,0,1-.49-.56,13.82,13.82,0,0,1-2.41-4.61c.77.16,1.51.29,2.21.37a23,23,0,0,0,2.65.16,9.55,9.55,0,0,0,4.54-.84.58.58,0,0,0,.27-.35.6.6,0,0,0,0-.33.66.66,0,0,0-.54-.5c-.61-.11-1.23-.24-1.83-.4a24,24,0,0,1-5.42-2.13c-.84-.45-1.66-.93-2.46-1.46,0,0,0,0,0,0a13.11,13.11,0,0,1,.3-1.66c.08-.33.16-.65.26-1a1.39,1.39,0,0,1,.06-.19,12.74,12.74,0,0,1,.54-1.38A14.17,14.17,0,0,1,226.86,37h0a15.1,15.1,0,0,1,10-1.29A14.29,14.29,0,0,1,248,47.29,13.55,13.55,0,0,1,247.8,52.51Z"/><path class="cls-2" d="M176.81,335.94c-.38,4.67-2.67,9.46-6.83,14.29h0c-.27.33-.55.64-.84,1a44.62,44.62,0,0,0,3.35-16.73,63.54,63.54,0,0,0-1.14-12.05l-.24-1.18c.15.15.31.32.47.51a19.23,19.23,0,0,1,5.27,11.64A18,18,0,0,1,176.81,335.94Z"/><path class="cls-2" d="M110.23,351.09l-1.18-1.35c-5.78-6.86-8.31-13.25-7.53-19.05a15,15,0,0,1,.33-1.72,17.51,17.51,0,0,1,6.21-9.14q-.09.53-.21,1.11c-.27,1.43-.52,3-.73,4.68a60,60,0,0,0-.58,7.81,41,41,0,0,0,.48,6.27c0,.21.06.42.1.62A48.41,48.41,0,0,0,110.23,351.09Z"/><path class="cls-2" d="M137.29,376.83a17.29,17.29,0,0,1-3.07,6.49,15.11,15.11,0,0,1-4.25,3.39c-3.88,2.14-8.37,2.62-10.6,1.21s-1.34-4.15-.27-6.21c.92-1.77,1.91-3.46,2.86-5.09s1.72-3,2.44-4.37c.22-.4.43-.8.62-1.2a32.8,32.8,0,0,0,6.73,4.14A20.83,20.83,0,0,0,137.29,376.83Z"/><path class="cls-2" d="M165.6,383.86c-.39,1.47-2.58,2.56-6.34,3.15a13.87,13.87,0,0,1-12.35-5.81,17.92,17.92,0,0,1-2.52-4.91c.38-.1.79-.23,1.17-.36a30.4,30.4,0,0,0,8.83-4.87,16.39,16.39,0,0,0,1.06,1.38,29.31,29.31,0,0,0,4.83,4.33C164.16,379.67,166,382.19,165.6,383.86Z"/><path class="cls-2" d="M171.14,334.48c0,.52,0,1,0,1.58,0,.29,0,.58,0,.87s-.05.63-.08.94a2.77,2.77,0,0,1,0,.3c-.05.43-.1.87-.16,1.3,0,.28-.09.58-.14.87s-.14.83-.22,1.23-.2,1-.32,1.48a3.94,3.94,0,0,1-.1.47c-.11.44-.22.88-.35,1.32a1.29,1.29,0,0,1-.06.21c-.13.51-.28,1-.45,1.53,0,.09,0,.2-.09.3-.16.5-.32,1-.51,1.49a2,2,0,0,1-.09.26c-.15.43-.3.85-.47,1.26-.07.19-.15.37-.22.55-.21.53-.44,1.05-.66,1.57s-.44,1-.67,1.44a54.42,54.42,0,0,1-3.78,6.66,43.47,43.47,0,0,1-9.41,10.3c-.36.3-.73.57-1.1.83s-.54.38-.81.55l-.46.3c-.36.23-.74.45-1.1.66s-.72.4-1.09.58a12,12,0,0,1-1.15.55,20.49,20.49,0,0,1-3.12,1.13l-.13,0a5.67,5.67,0,0,1-.81.21.8.8,0,0,1-.21.05c-.3.07-.6.12-.9.17s-.38.07-.56.08l-1.17.12h-.21c-.31,0-.6,0-.91,0l-.87,0-.52-.05a7.8,7.8,0,0,1-.83-.09l-1-.18c-.36-.08-.73-.17-1.09-.28s-.63-.18-.94-.28a25.1,25.1,0,0,1-4.75-2.18l-.8-.49c-.26-.16-.5-.32-.74-.49q-.84-.54-1.65-1.17c-.5-.37-1-.76-1.46-1.17s-.92-.79-1.38-1.2-1-.94-1.47-1.43-.86-.9-1.28-1.37c0,0-.06-.06-.09-.09a50.61,50.61,0,0,1-7.67-11.27c-.44-.89-.87-1.8-1.26-2.72-.21-.5-.42-1-.61-1.51s-.32-.82-.47-1.23a2,2,0,0,1-.1-.32c-.19-.52-.36-1-.53-1.55s-.32-1-.46-1.58c-.32-1.13-.59-2.27-.82-3.42a42.15,42.15,0,0,1-.81-8.17,75.8,75.8,0,0,1,1.47-13.31c0-.2.08-.38.12-.56s0-.28.08-.41l2.55.59q4,.9,8,1.53a137.19,137.19,0,0,0,22.36,1.84,134.79,134.79,0,0,0,22.56-1.9c1.53-.25,3.05-.52,4.57-.83.09.41.19.83.28,1.26s.15.69.2,1c.28,1.43.51,2.89.68,4.35a10.92,10.92,0,0,1,.12,1.15c.1.89.18,1.79.22,2.7,0,.6.06,1.19.08,1.8S171.14,333.87,171.14,334.48Z"/><path class="cls-2" d="M266.25,238.9c-.38.94-.75,1.88-1.15,2.81a128.31,128.31,0,0,1-42.67,53.81c-.78.59-1.56,1.16-2.37,1.71s-1.41,1-2.13,1.46l-.52.37-1.53,1c-.34.22-.7.45-1.07.67-.69.46-1.38.89-2.09,1.31l-2.07,1.24a4.49,4.49,0,0,1-.42.24c-2.43,1.41-4.89,2.73-7.37,4-1.68.84-3.37,1.65-5.06,2.41-.86.38-1.71.76-2.57,1.12s-1.71.71-2.58,1.06-1.72.71-2.59,1l-2.19.8c-1,.37-2,.72-3.07,1-.87.3-1.75.59-2.62.85s-1.78.54-2.67.79-1.78.51-2.67.74c-1.79.47-3.58.91-5.39,1.3-.35.09-.69.15-1,.23h0c-1,.21-2,.42-3,.6-.84.17-1.68.31-2.54.45s-1.64.28-2.46.39c-.38.07-.76.12-1.14.17l-1.74.24c-1.94.24-3.88.45-5.83.61l-2.53.18-.4,0-2.69.13c-.89,0-1.78.06-2.67.09h-.62a135.8,135.8,0,0,1-15.47-.6q-5.58-.54-11.15-1.54-2.86-.51-5.7-1.15c-1.06-.23-2.09-.48-3.13-.72l-.09,0-.14,0c-.92-.23-1.84-.47-2.75-.73-.49-.11-1-.26-1.48-.41l-.39-.11c-1.75-.49-3.47-1-5.18-1.59-1-.33-2-.67-3-1-.55-.19-1.09-.39-1.63-.6-.22-.09-.47-.16-.69-.26q-.75-.27-1.47-.57c-2.15-.83-4.28-1.72-6.36-2.67-.6-.26-1.19-.53-1.79-.82l-.9-.43c-.86-.4-1.73-.83-2.59-1.27s-2-1-2.91-1.52-1.92-1-2.86-1.58-1.9-1.08-2.82-1.65c-.36-.22-.72-.43-1.08-.67-.55-.32-1.09-.66-1.64-1l0,0c-.91-.59-1.82-1.17-2.71-1.78s-1.79-1.21-2.66-1.83-1.75-1.25-2.61-1.9-1.72-1.29-2.56-1.95-1.67-1.32-2.49-2c0,0,0,0,0,0-.83-.67-1.63-1.35-2.44-2.06-.64-.54-1.26-1.1-1.89-1.67s-1.52-1.38-2.27-2.09c-.47-.43-.94-.87-1.39-1.33-1.3-1.24-2.55-2.52-3.78-3.81-.7-.73-1.38-1.47-2-2.21s-1.16-1.3-1.73-2c-2.25-2.57-4.37-5.22-6.39-7.95-.48-.63-.93-1.26-1.39-1.9-.28-.38-.56-.77-.83-1.16q-1.58-2.26-3.06-4.58c-.65-1-1.3-2.08-1.92-3.13,0,0,0,0,0,0a127.23,127.23,0,0,1-16.62-46c-.48-3.13-.84-6.27-1.08-9.44a127.66,127.66,0,0,1-.26-14c0-.4,0-.8.06-1.21.06-1.45.16-2.9.28-4.37l6.93,0c4.69,0,9.27,0,13.77.07,14.86.14,28.72.62,41.7,1.37,43.18,2.5,76.43,8.08,103.18,15.27a319.5,319.5,0,0,1,33.06,10.76c23.41,9.07,40.95,19.24,57.06,28.58Z"/><path class="cls-2" d="M288,190.53l-2.55,10.79-6.58,27.84a4.57,4.57,0,0,1-4.85,3.41l-4-.27q1-3,1.79-6c.42-1.52.81-3,1.17-4.57l3.7-15.63L279.8,193a88.27,88.27,0,0,0,1.73-9.6l5,3.46A3.51,3.51,0,0,1,288,190.53Z"/><path class="cls-2" d="M20.47,126.26c-.45,1.34-.88,2.68-1.25,4-.07.2-.12.4-.18.61-.35,1.21-.65,2.43-.95,3.65l-4.5,19-2.3,9.75c-.76,3.23-1.4,6.48-1.89,9.74-.14.72-.24,1.45-.34,2.18L4.43,173c-2.25-1.1-3.49-3-3.06-4.8L5.7,149.83l4.7-19.92c.41-1.75,2.28-3,4.75-3.22Z"/><path class="cls-2" d="M125.52,63.23A97.5,97.5,0,0,0,59.73,77,94.24,94.24,0,0,0,44.18,89.09c-.13.11-.25.23-.38.36h0c-2,1.94-4,4-5.78,6.09-1.16,1.34-2.27,2.7-3.34,4.11A90.07,90.07,0,0,0,27,111.33q-1.08,2-2,4c-1,1.92-1.83,3.88-2.63,5.87-11.61-22.11-.3-51.64,26.25-67.8,1-.58,1.94-1.15,2.92-1.67a65.88,65.88,0,0,1,41-7.56c14,2,25.91,8.93,32.9,19A1,1,0,0,1,125.52,63.23Z"/><path class="cls-2" d="M282,178.87l.12-1.71h0c0-.78.06-1.57.09-2.35s0-1.57,0-2.35,0-1.7,0-2.54c0-.59,0-1.17-.07-1.76,0-1.17-.12-2.32-.21-3.49a91,91,0,0,0-13.67-40.92c-1.36-2.19-2.82-4.32-4.36-6.37A94,94,0,0,0,241.2,95.63,96.15,96.15,0,0,0,217.39,84l-.71-.24c-.9-.3-1.83-.57-2.76-.84,1-.53,1.91-1,2.9-1.49,23-10.76,54.38.1,70.61,25.28C304.29,132.83,301.83,164.19,282,178.87Z"/><path class="cls-2" d="M280.91,171.94c0,.46,0,.91,0,1.37,0,.79,0,1.58-.07,2.39q-5.62-4.15-11.73-8a246.12,246.12,0,0,0-42.6-21.1,344.26,344.26,0,0,0-38.06-12.11,467.53,467.53,0,0,0-53.66-10.36c-13.14-1.8-25.86-3.06-37.82-3.91-8.23-.6-16.09-1-23.51-1.25-15.75-.54-29.41-.45-40-.14-3.21.09-6.15.19-8.76.31l0-.08c.28-.66.57-1.31.89-2A89.28,89.28,0,0,1,37.17,98.66a91,91,0,0,1,6.52-7.25c.81-.82,1.66-1.62,2.51-2.4v0A92.77,92.77,0,0,1,60.45,78.1a96.31,96.31,0,0,1,70-12.7,25.37,25.37,0,0,0,4.59.51h.22l7,.07,15.47.16c-4.72,5.66-8.91,8.45-12.4,9.66-5.05,1.74-8-.12-8.11-.21a.69.69,0,0,0-.93.17.65.65,0,0,0,.17.91c.15.09,3.56,2.31,9.23.38,8.65-2.94,21.47-15.1,35.7-54.7.41-1.15.83-2.33,1.25-3.53q2.06-5.88,4.12-12.54c1.37-3.35,2.11-4.46,2.43-4.82a5.49,5.49,0,0,1,.23,1.29h0l0,0c.25,3.25-.26,10.88-.79,18.37,0,.14,0,.3,0,.44-.11,1.62-.23,3.3-.33,5-.06.75-.11,1.51-.16,2.27-1.75,26.92-3,61.72,10.86,63.12h.06a.66.66,0,0,0,.67-.58.64.64,0,0,0-.6-.71c-5.49-.56-8.33-7.59-9.67-17.43l12.36,6.39,3.07,1.58A24.69,24.69,0,0,0,209.42,83c.26.09.55.15.83.23,1.32.34,2.63.7,3.94,1.09A94.82,94.82,0,0,1,240.81,97a92.66,92.66,0,0,1,21.36,20.24c1.76,2.31,3.43,4.72,5,7.21A89.32,89.32,0,0,1,280.91,171.94Z"/><path class="cls-2" d="M226,52.71a18.48,18.48,0,0,1-4.23-.15,26.55,26.55,0,0,1-5.09-1.22L215.62,51l-.89-.37a31.3,31.3,0,0,1-4.27-2.22A40.23,40.23,0,0,1,198.68,37a59.42,59.42,0,0,1-3.65-5.9,72.79,72.79,0,0,1-3.87-8.4c-.38-.91-.73-1.84-1.06-2.8.28-4.31.49-7.73.63-10.42,0-1,.07-1.79.09-2.57.08.24.18.47.26.72a138.94,138.94,0,0,0,8.36,18.71q1.42,2.61,2.87,5a70.94,70.94,0,0,0,9.28,12.16c1,1,2,1.92,3,2.77l.13.11c.45.39.91.76,1.36,1.11a32,32,0,0,0,4.81,3.16l.8.4A25.09,25.09,0,0,0,226,52.71Z"/><path class="cls-3" d="M222.43,295.52c-.78.58-1.56,1.15-2.37,1.71s-1.41,1-2.13,1.46l-.52.37-1.53,1c-.34.22-.7.45-1.07.67-.69.46-1.38.89-2.09,1.31s-1.66,1-2.49,1.48c-2.43,1.42-4.89,2.74-7.37,4-1.67.85-3.37,1.66-5.06,2.41-.86.38-1.71.76-2.57,1.12s-1.71.71-2.58,1.06-1.72.71-2.59,1l-2.19.8c-1,.37-2,.72-3.07,1-.87.3-1.75.59-2.62.85s-1.78.54-2.67.79-1.78.51-2.67.74c-1.79.48-3.58.91-5.39,1.3-.35.09-.69.15-1,.23h0c-1,.21-2,.42-3,.6-.84.17-1.68.31-2.54.45s-1.64.28-2.46.39c-.38.07-.76.12-1.14.17l-1.74.24c-1.94.24-3.88.45-5.83.61l-2.53.18-.4,0-2.69.13c-.89,0-1.78.06-2.67.09h-.62a135.8,135.8,0,0,1-15.47-.6q-5.58-.54-11.15-1.54-2.86-.51-5.7-1.15c-1.09-.24-2.15-.49-3.22-.75l-.14,0c-.92-.23-1.84-.47-2.75-.73-.49-.11-1-.26-1.48-.41l-.39-.11c-1.75-.49-3.47-1-5.18-1.59-1-.33-2-.68-3-1-.55-.19-1.09-.39-1.63-.6-.22-.09-.47-.16-.69-.26q-.75-.27-1.47-.57c-2.15-.83-4.28-1.72-6.36-2.67l-1.79-.82-.9-.43c-.86-.41-1.73-.84-2.59-1.27s-2-1-2.91-1.52-1.92-1-2.86-1.58-1.88-1.1-2.82-1.65-1.81-1.11-2.72-1.68l0,0L66.75,299c-.9-.6-1.78-1.21-2.66-1.83s-1.75-1.26-2.61-1.9-1.71-1.29-2.56-1.95-1.66-1.32-2.49-2c0,0,0,0,0,0-.82-.68-1.63-1.35-2.44-2.06-.64-.54-1.26-1.11-1.89-1.67s-1.52-1.38-2.27-2.09c-.47-.43-.94-.87-1.39-1.33-1.3-1.24-2.55-2.52-3.78-3.81-.68-.73-1.37-1.46-2-2.21s-1.16-1.29-1.73-2c-2.25-2.57-4.37-5.22-6.39-7.95-.48-.63-.93-1.27-1.39-1.9-.28-.38-.56-.77-.83-1.16q-1.58-2.26-3.06-4.58c12.19,11.09,32,25.08,61,34.08C122.36,304.63,165.73,308.5,222.43,295.52Z"/><path class="cls-3" d="M266.25,238.9c-.38.94-.75,1.88-1.15,2.81-94-58.2-214.95-56.34-255.34-53.79l-.46,0c0-.4,0-.8.06-1.21.06-1.45.16-2.9.28-4.37h3.48c1.17,0,2.31,0,3.45,0,29.18-.09,54.72,1,77.27,3q5.44.46,10.66,1c2.62.27,5.18.56,7.71.87,1.34.15,2.67.32,4,.48,2,.26,3.93.5,5.85.78,1.23.17,2.46.33,3.66.52,9.91,1.42,19.14,3,27.77,4.84,1.38.29,2.73.57,4.08.87a352,352,0,0,1,34.73,9.35c5.48,1.78,10.65,3.63,15.58,5.53h0c2,.77,3.89,1.53,5.77,2.3,20.76,8.52,36.83,17.83,51.69,26.44Z"/><path class="cls-3" d="M285.46,201.32l-6.58,27.84a4.57,4.57,0,0,1-4.85,3.41l-4-.27q1-3,1.79-6C275.06,223.25,279.88,216.43,285.46,201.32Z"/><path class="cls-3" d="M9.4,173.09c-.14.72-.24,1.45-.34,2.18L4.43,173c-2.25-1.1-3.49-3-3.06-4.8L5.7,149.83C4.13,166.43,5.34,169.28,9.4,173.09Z"/><path class="cls-3" d="M282.12,177.15a92.88,92.88,0,0,0-.16-12.49,91,91,0,0,0-13.67-40.92,94.73,94.73,0,0,0-51.61-40c6,2.14,29.71,6.16,47.75,26.56C282.26,130.44,286.72,157,282.12,177.15Z"/><path class="cls-3" d="M214.55,46.23A59.89,59.89,0,0,1,198.68,37a66.21,66.21,0,0,1-7.52-14.3c-.38-.91-.73-1.84-1.06-2.8.39-5.82.64-10,.72-13a139.4,139.4,0,0,0,8.62,19.43Q206.55,39.38,214.55,46.23Z"/><path class="cls-3" d="M247.8,52.51c-1.94-10.41-9.67-14.95-16.47-16.92a14.6,14.6,0,0,1,5.54.15A14.29,14.29,0,0,1,248,47.29,13.55,13.55,0,0,1,247.8,52.51Z"/><path class="cls-3" d="M226.86,37c-3.06,2.6-5.18,6.55-5.23,12.47-.84-.45-1.66-.93-2.46-1.46,0,0,0,0,0,0a13.11,13.11,0,0,1,.3-1.66c.08-.33.16-.65.26-1a1.39,1.39,0,0,1,.06-.19,12.74,12.74,0,0,1,.54-1.38A14.17,14.17,0,0,1,226.86,37Z"/><path class="cls-3" d="M125.52,63.23A97.5,97.5,0,0,0,59.73,77,93.56,93.56,0,0,0,27,111.33c21.27-33,38.28-59.77,98.39-48.23A1,1,0,0,1,125.52,63.23Z"/><path class="cls-3" d="M171.14,334.48c0,.52,0,1,0,1.58,0,.29,0,.58,0,.87s-.05.63-.08.94a2.77,2.77,0,0,1,0,.3c-.05.43-.1.87-.16,1.3,0,.28-.09.58-.14.87s-.14.83-.22,1.23-.2,1-.32,1.48a3.94,3.94,0,0,1-.1.47c-.11.44-.22.88-.35,1.32a1.29,1.29,0,0,1-.06.21c-.13.51-.28,1-.45,1.53,0,.09,0,.2-.09.3-.16.51-.34,1-.51,1.49a2,2,0,0,1-.09.26c-.15.43-.3.85-.47,1.26-.07.19-.15.37-.22.55-.21.53-.44,1.05-.66,1.57s-.44,1-.67,1.44a54.42,54.42,0,0,1-3.78,6.66,43.47,43.47,0,0,1-9.41,10.3c-.36.3-.73.57-1.1.83s-.54.38-.81.55l-.46.3c-.36.23-.74.45-1.1.66s-.72.4-1.09.58a12,12,0,0,1-1.15.55,20.49,20.49,0,0,1-3.12,1.13l-.13,0a5.67,5.67,0,0,1-.81.21.8.8,0,0,1-.21.05c-.3.07-.6.12-.9.17s-.38.07-.56.08l-1.17.12h-.21c-.31,0-.6,0-.91,0l-.87,0-.52-.05a7.8,7.8,0,0,1-.83-.09l-1-.18c-.36-.08-.73-.17-1.09-.28l-.94-.28a25.1,25.1,0,0,1-4.75-2.18l-.8-.49c-.26-.16-.5-.32-.74-.49q-.84-.54-1.65-1.17c-.5-.37-1-.76-1.46-1.17s-.92-.79-1.38-1.2-1-.94-1.47-1.43-.86-.9-1.28-1.37c0,0-.06-.06-.09-.09a50.61,50.61,0,0,1-7.67-11.27c-.44-.89-.85-1.8-1.26-2.72-.21-.5-.42-1-.61-1.51s-.32-.82-.47-1.23a2,2,0,0,1-.1-.32c-.19-.52-.36-1-.53-1.55s-.32-1-.46-1.58c5.15,9.65,10.4,18.4,16.75,23.65l0,0c4.59,3.75,9.75,5.67,15.85,4.78.55-.08,1.11-.17,1.67-.3,21.86-4.91,27.66-40.6,22.95-50a4.19,4.19,0,0,0-1.79-2c1.53-.25,3.05-.52,4.57-.83.09.41.19.83.28,1.26s.15.69.2,1c.28,1.43.51,2.89.68,4.35a10.92,10.92,0,0,1,.12,1.15c.1.89.18,1.79.22,2.7,0,.6.06,1.19.08,1.8S171.14,333.87,171.14,334.48Z"/><path class="cls-3" d="M170,322.66c-1.11.2-2.19.38-3.26.55-26.43,4.28-42.29,2.67-51.78-.6a33.37,33.37,0,0,1-5.63-2.49c0-.2.08-.38.12-.56s0-.28.08-.41l2.55.59c1.2.28,2.4.52,3.61.76l.44.09c1.29.24,2.6.48,3.9.68l.25,0c.84.15,1.7.28,2.54.39s1.68.24,2.51.34l2.22.26,1.57.16c1.27.13,2.53.23,3.8.31l1.27.09,2.52.13c1.9.08,3.78.12,5.68.12a134.79,134.79,0,0,0,22.56-1.9c1.53-.25,3.05-.52,4.57-.83.09.41.19.83.28,1.26S170,322.33,170,322.66Z"/><path class="cls-3" d="M170,350.23h0c-.27.33-.55.64-.84,1a44.62,44.62,0,0,0,3.35-16.73,63.54,63.54,0,0,0-1.14-12.05l-.24-1.18c.15.15.31.32.47.51C174.55,325.77,176.74,334,170,350.23Z"/><path class="cls-3" d="M110.23,351.09l-1.18-1.35c-4.62-9.44-4.85-18-3.58-23.43a12.56,12.56,0,0,1,2.38-5.37c-.13.72-.27,1.5-.4,2.32,0,.38-.12.75-.16,1.13s-.12.82-.17,1.23a60,60,0,0,0-.58,7.81,41.79,41.79,0,0,0,.58,6.89A48.41,48.41,0,0,0,110.23,351.09Z"/><path class="cls-3" d="M125,371.05a26.43,26.43,0,0,0,12.27,5.78,17.29,17.29,0,0,1-3.07,6.49,15.11,15.11,0,0,1-4.25,3.39c4.17-4.24,4.35-6.94,4.58-8.83,0,0-7.76-4.35-9.53-6.83Z"/><path class="cls-3" d="M155.45,372.44c-6.28,1.92-8,6.26-8.54,8.76a17.92,17.92,0,0,1-2.52-4.91,29.3,29.3,0,0,0,10-5.23A16.39,16.39,0,0,0,155.45,372.44Z"/><path class="cls-4" d="M280.77,177.28c-.06.85-.11,1.68-.19,2.52a89.11,89.11,0,0,1-2.08,12.87l-3,12.57-3.83,16.23c-.51,2.13-1.06,4.23-1.67,6.31q-.7,2.43-1.5,4.81a.53.53,0,0,0-.08.26c-.37,1.09-.75,2.16-1.15,3.24-.19.53-.39,1-.59,1.57l-.69-.4c-16.19-9.39-33.83-19.61-57.38-28.74l17.49-60.64a251.37,251.37,0,0,1,37.22,17.86A199.15,199.15,0,0,1,280.77,177.28Z"/><path class="cls-5" d="M226.13,147.88l-17.49,60.64a321.42,321.42,0,0,0-33.15-10.77c-26.72-7.17-59.9-12.74-102.95-15.26l23.93-61c12,.85,24.87,2.11,38.12,3.93a468.82,468.82,0,0,1,53.59,10.36A339.49,339.49,0,0,1,226.13,147.88Z"/><path class="cls-6" d="M96.47,121.5l-23.93,61q-19.29-1.12-41.32-1.39c-4.79-.07-9.68-.08-14.68-.07l-6.66,0H9.74c.08-.84.18-1.69.27-2.55.08-.67.16-1.35.25-2a124.87,124.87,0,0,1,2.34-12.83l2.21-9.37,4.59-19.43c.32-1.34.67-2.67,1-4,0-.08,0-.14.07-.22a88.17,88.17,0,0,1,3.58-10.17c2.74-.13,5.84-.25,9.26-.34,10.41-.3,23.82-.4,39.25.12C80.1,120.51,88.11,120.9,96.47,121.5Z"/><path class="cls-7" d="M263.35,165.74C90.44,106.67,30.21,150.8,9.88,181.06H9.74c.15-1.53.32-3.05.52-4.58a124.87,124.87,0,0,1,2.34-12.83l6.8-28.8c.32-1.34.67-2.67,1-4a89.4,89.4,0,0,1,3.65-10.39,631.91,631.91,0,0,1,110.5,5C187,132.59,230.16,146.12,263.35,165.74Z"/><path class="cls-7" d="M188.66,21.16c-.16.95-.31,1.9-.47,2.86C181,46,172.63,72.67,161.81,79.64c-6.27,4-18.72,1-22.67-2a12.87,12.87,0,0,0,6.58-.6c8.65-2.94,21.47-15.1,35.7-54.7.41-1.15.83-2.33,1.25-3.53q2.06-5.88,4.12-12.54c1.37-3.35,2.11-4.46,2.43-4.82a5.49,5.49,0,0,1,.23,1.29h0l0,0C189.7,6,189.19,13.67,188.66,21.16Z"/><path class="cls-7" d="M90.23,294.64c-29-9-48.85-23-61-34.08A125.57,125.57,0,0,1,9.3,187.94l.46,0C16.49,233.88,37.84,265.18,90.23,294.64Z"/><path class="cls-7" d="M51.54,51.69C27,76.14,24.14,91.28,25,115.29c-1,1.92-1.83,3.88-2.63,5.87-11.61-22.11-.3-51.64,26.25-67.8C49.58,52.78,50.56,52.21,51.54,51.69Z"/><path class="cls-7" d="M37.17,98.66c-6.25,13.83-7,18.07-3.74,20.19-3.21.09-6.15.19-8.76.31l0-.08c.28-.66.57-1.31.89-2A89.28,89.28,0,0,1,37.17,98.66Z"/><path class="cls-8" d="M281.85,180.57a42.46,42.46,0,0,0,16.7-25.29c5-20.95-3.26-44.35-18.26-59.72a65.14,65.14,0,0,0-32.54-18.32c-11.82-2.55-25.33-1.47-35.63,5.18a34.83,34.83,0,0,1-6.35-2.21c-.88-.43-1.75-.9-2.62-1.35l-11.07-5.72c-.92-.48-1.84-1-2.79-1.45h0c-.49-4.1-.67-8.24-.76-12.35-.24-12.19.49-24.41,1.38-36.57.46,1.22.88,2.47,1.4,3.65q1.33,3,3,5.95c3.73,6.72,8.77,13,15.47,17.09a31.91,31.91,0,0,0,8.51,3.69v0c0,1.25,1,2.91,1.63,4a15.25,15.25,0,0,0,2.31,3A16.35,16.35,0,0,0,240,63.63a15.27,15.27,0,0,0-1.91-28.92,16.18,16.18,0,0,0-18.17,7.15,15.28,15.28,0,0,0-1.6,3.77A11.5,11.5,0,0,0,218,47.2c-.87-.63-1.72-1.3-2.52-2-7.13-6.27-12.28-14.45-16.49-22.77q-3.18-6.3-5.71-12.9c-.72-1.88-1.41-3.76-2-5.67a4.67,4.67,0,0,0-.48-1.42c-.22-1.52-.84-3.37-2.41-1.91s-2.47,4.41-3.08,6.34a302.07,302.07,0,0,1-13.34,35.57,138.11,138.11,0,0,1-8.2,15.43,78.33,78.33,0,0,1-4.86,7l-.22,0c-3.67-.15-7.36-.07-11-.11l-7.77-.08c-1.57,0-3.14,0-4.71,0a49.66,49.66,0,0,1-7.84-1l.07,0c0-.43-.91-1.36-1.17-1.72-.43-.6-.89-1.2-1.36-1.78a43.46,43.46,0,0,0-3-3.34,45.21,45.21,0,0,0-7.15-5.76,53.37,53.37,0,0,0-17.9-7.36c-25.37-5.51-52.36,5.69-67.88,25.51-11.77,15-17,36.55-7,53.78-.26.7-.54,1.39-.79,2.09h-.05a3.93,3.93,0,0,0-1.13.09c-1.47.11-2.94.22-4.41.35-3.18.27-5.68,1.73-6.43,4.84C7.11,138,5.3,145.76,3.46,153.53c-1.1,4.65-2.24,9.3-3.31,14C-1,172.71,5,174.78,8.93,176.67q-.57,4.05-.83,8.16a127.45,127.45,0,0,0,6.62,48.95A130.23,130.23,0,0,0,38.93,276a133.35,133.35,0,0,0,68.57,42.58,19.21,19.21,0,0,0-4.14,4.16c-3.82,5.22-4.07,11.65-1.76,17.52a35.94,35.94,0,0,0,5.52,9.15q1.81,2.26,3.84,4.36c.29.3.58.75.91.87a50,50,0,0,0,3.23,5.47,52.58,52.58,0,0,0,8.81,10.11c0,.1-.08.2-.14.32-1.69,3.46-3.82,6.69-5.63,10.1-1.16,2.2-2.35,5.2-.55,7.41s5,2.13,7.49,1.7a17.5,17.5,0,0,0,9.16-4.56,17.07,17.07,0,0,0,4.41-8.27l.42,0a18.32,18.32,0,0,0,4.06-.36c1.88,5.06,5.25,9.38,10.75,11.07a14.34,14.34,0,0,0,8.53-.05c1.8-.55,4-1.51,4.49-3.46.82-3.15-2.83-6.12-5-7.82a40.59,40.59,0,0,1-5-4.31c-.14-.15-.85-1.23-1.34-1.86a48.4,48.4,0,0,0,6.53-6.81,50.45,50.45,0,0,0,5.5-8.7c5.33-5.21,10.06-11.53,10.6-19.09a20,20,0,0,0-6.54-15.69c1.49-.33,3-.67,4.46-1a136.81,136.81,0,0,0,46.27-21.66,131.46,131.46,0,0,0,33.4-35,128.21,128.21,0,0,0,13.79-28.63h0c1,.11,2.07.14,3.1.21,3.4.24,6.56-.78,7.52-4.34.2-.76.36-1.53.54-2.3q1.59-6.67,3.16-13.36,1.88-7.91,3.74-15.81l1.27-5.34a11.08,11.08,0,0,0,.53-3.1,5.07,5.07,0,0,0-2.37-3.93c-1.75-1.23-3.49-2.6-5.34-3.69l-.08,0c.05-.42.11-.84.16-1.26ZM214.74,82.43a41.13,41.13,0,0,1,4.52-2.09,44,44,0,0,1,8-2.28,50.33,50.33,0,0,1,17.14-.14c23.18,3.67,41.71,21,49.82,42,7.61,19.66,6.2,45.48-12.25,59,.18-2.13.31-4.27.31-6.44A89.65,89.65,0,0,0,270.81,128a94.66,94.66,0,0,0-32.18-34,97.69,97.69,0,0,0-22.17-10.31c-.82-.27-1.65-.5-2.49-.73C214.3,82.71,214.6,82.5,214.74,82.43Zm52,155.23-2.2-1.28c-14.73-8.53-29.63-16.76-45.31-23.54a325.4,325.4,0,0,0-51.21-17,445.89,445.89,0,0,0-45-8.49c-18.58-2.58-37.31-4.19-56-5.15-19-1-38.08-1.12-57.15-1.12q.27-2.91.67-5.82c1.08-7.77,3.06-15.39,4.87-23C17,145,18.49,137.58,20.58,130.4a89.12,89.12,0,0,1,3.55-9.94c1.82-.15,3.68-.15,5.51-.21q25.07-.87,50.14.28c18.42.83,36.81,2.43,55.07,4.94a467.26,467.26,0,0,1,52.88,10.21,325.05,325.05,0,0,1,51,17.45,238.59,238.59,0,0,1,23,11.68q5.91,3.44,11.58,7.23,2.76,1.86,5.45,3.8a17.59,17.59,0,0,0,1.93,1.44,91.62,91.62,0,0,1-2.24,15.41q-1.9,8.12-3.83,16.25C272.37,218.63,270.21,228.29,266.71,237.66ZM219.48,46.34a13.48,13.48,0,0,1,.66-2.07,14.27,14.27,0,0,1,2.1-3.52,15,15,0,0,1,17.17-4.2,14,14,0,0,1-.54,26.11,15,15,0,0,1-16.5-4.23,13.57,13.57,0,0,1-2.44-4.27,6.27,6.27,0,0,1-.17-.64c.14,0,.28.08.42.1,1,.2,9.76,1.21,9.24-1.08-.17-.82-3-1.07-3.77-1.31a25.46,25.46,0,0,1-4-1.72c-.84-.45-1.65-.94-2.44-1.46A11.54,11.54,0,0,0,219.48,46.34ZM193,12.62a111.09,111.09,0,0,0,13.06,24.25c5,6.81,11.48,13.35,19.94,15.84-9.09.84-18-4.87-23.72-11.21a54.82,54.82,0,0,1-8.06-11.94c-1.14-2.24-2.14-4.54-3.06-6.87a14.17,14.17,0,0,0-1.06-2.82c.32-4.26.7-8.59.74-12.88Q191.86,9.83,193,12.62ZM153.75,66.1l4,0h.07a43.13,43.13,0,0,1-5.36,5.45c-3.37,2.84-7.89,5.51-12.54,4.86-.62-.08-3.13-1.31-3.56-.69-.74,1,1.91,1.67,2.45,1.8C144,78.78,149.15,76,153,72.8a56.5,56.5,0,0,0,11.31-13.5,158,158,0,0,0,13-26q3.6-8.91,6.64-18c1.05-3.13,1.86-6.4,3.09-9.46a15.1,15.1,0,0,1,2.24-4.35,5.14,5.14,0,0,1,.28,1.26l-.07,0,.09.25c.07,1,0,2,0,2.89,0,2.09-.14,4.19-.26,6.28-.29,5.11-.66,10.22-1,15.33-1,14.14-1.9,28.54-.48,42.67.53,5.25,1.31,10.78,3.68,15.58a13,13,0,0,0,3.5,4.6c.62.48,4.6,2.74,4.8,1.06.1-.85-1.68-.88-2.28-1.12a6.86,6.86,0,0,1-2-1.21c-3.35-2.86-4.53-7.83-5.34-11.89-.25-1.3-.46-2.61-.64-3.92l.35.18,10.12,5.23a52.65,52.65,0,0,0,9.9,4.44,108.14,108.14,0,0,1,23,9A94.07,94.07,0,0,1,252,105.91a92.38,92.38,0,0,1,25.1,40.17,89,89,0,0,1,3.76,29.61c-1.28-.93-2.55-1.86-3.85-2.77a234.26,234.26,0,0,0-45.79-24.45,348.1,348.1,0,0,0-50.92-16,492.1,492.1,0,0,0-53.56-9.38Q99.53,119.8,72.13,119c-15.83-.52-31.64-.35-47.46.23A90.76,90.76,0,0,1,45.83,89.34a95.91,95.91,0,0,1,64.22-25.82,99.07,99.07,0,0,1,11.93.57c3.93.43,7.82,1.49,11.76,1.76C140.34,66.32,147.13,66,153.75,66.1ZM22.14,120.72c-.57-1.12-1.08-2.26-1.54-3.43a38.79,38.79,0,0,1-2.11-7.45,43.68,43.68,0,0,1,.08-15.55C22.46,72.75,40.34,54.89,61,47.42c21.75-7.86,51-4.24,64.52,15.86-.86-.15-1.71-.28-2.57-.38a97.92,97.92,0,0,0-46.5,5.76A96.94,96.94,0,0,0,37.71,95.92a91.21,91.21,0,0,0-15.28,25.29C22.31,121,22.2,120.84,22.14,120.72ZM8.84,175.16,5.07,173.3c-2.56-1.26-4.19-3.06-3.52-5.9q2.67-11.29,5.33-22.59l3.36-14.24c1-4.36,6.41-4.14,10.31-4.33-1,2.9-1.87,5.84-2.58,8.83L13.59,153.6c-1.7,7.21-3.37,14.39-4.45,21.68ZM101.51,334.8a16.37,16.37,0,0,1,6-14.54,4.21,4.21,0,0,1,.47-.32c0,.25-.05.47-.08.62-.22,1.11-.41,2.23-.58,3.35a71,71,0,0,0-.79,8.1,46.05,46.05,0,0,0,3.66,19.09C106,346.46,102.26,341,101.51,334.8Zm35.22,43.83a14.76,14.76,0,0,1-2.51,4.69,16,16,0,0,1-10.75,5.38c-2.79.17-5.89-.86-5.4-4.12a14.35,14.35,0,0,1,2-4.61c.93-1.67,1.91-3.32,2.86-5,.52-.91,1-1.82,1.5-2.75.08-.14.38-.62.63-1.06a25,25,0,0,0,12.15,5.64C137,377.46,136.83,378.33,136.73,378.63Zm26.52.66c1.45,1.45,3.61,4,1.5,5.81-1.83,1.56-5,2.12-7.39,2-6.31-.42-11-5.12-13-10.71a27.94,27.94,0,0,0,10-5.25C156.77,374.43,160.38,376.43,163.25,379.29ZM161,362.4c-5.21,6.92-13.59,14.27-23.12,13.2-10-1.12-18.11-10-22.94-18a47.3,47.3,0,0,1-6.86-28.84c.21-2.39.54-4.77,1-7.14a23.11,23.11,0,0,0,.48-2.51,141.21,141.21,0,0,0,14.66,2.77,137.36,137.36,0,0,0,45.23-1.52c.13.61.38,1.28.45,1.61a56.21,56.21,0,0,1,1.19,14.52C170.51,345.75,166.62,355,161,362.4Zm12.17-38.66a18.26,18.26,0,0,1,3.67,10.92,22,22,0,0,1-3.93,11.67,39.68,39.68,0,0,1-3.78,4.82,44.88,44.88,0,0,0,3.32-16.67,63.66,63.66,0,0,0-.47-7.8c-.22-1.79-.54-3.57-.91-5.34A22,22,0,0,1,173.2,323.74Zm70.85-48.14a132.73,132.73,0,0,1-35.32,28.78,136.08,136.08,0,0,1-140-4.14,131.12,131.12,0,0,1-35.05-33.18,129.29,129.29,0,0,1-20.35-42.9A125.38,125.38,0,0,1,9.65,182.4c.4,0,.86-.05,1-.05,19.85-.1,39.71.21,59.54,1.32,18.82,1.05,37.62,2.75,56.27,5.48A427.77,427.77,0,0,1,171.27,198a318.79,318.79,0,0,1,52.88,18.47,426.69,426.69,0,0,1,42.08,22.41A125.51,125.51,0,0,1,244.05,275.6Zm37.53-92.2,2.55,1.77c2.07,1.43,4.42,2.66,3.83,5.54-.45,2.25-1.06,4.48-1.58,6.71L280.8,221q-.74,3.15-1.48,6.28c-.33,1.42-.53,2.9-1.65,4-2,1.92-5.11,1.2-7.62,1H270q1.78-5.43,3.11-11,2-8.64,4.09-17.27c1.63-6.89,3.3-13.74,4.25-20.71Z"/></g></g></svg>